<svg xmlns="http://www.w3.org/2000/svg" width="24" height="24" viewBox="0 0 24 24" fill="currentColor" class="icon icon-tabler icons-tabler-filled icon-tabler-brightness-up"><metadata><rdf:RDF xmlns:rdf="http://www.w3.org/1999/02/22-rdf-syntax-ns#" xmlns:dc="http://purl.org/dc/elements/1.1/"><rdf:Description><dc:creator>RealFaviconGenerator</dc:creator><dc:source>https://realfavicongenerator.net</dc:source></rdf:Description></rdf:RDF></metadata><path stroke="none" d="M0 0h24v24H0z" fill="none"></path><path fill="#ecc98b" d="M12 8a4 4 0 1 1 -3.995 4.2l-.005 -.2l.005 -.2a4 4 0 0 1 3.995 -3.8z"></path><path fill="#e9b253" d="M12 2a1 1 0 0 1 .993 .883l.007 .117v2a1 1 0 0 1 -1.993 .117l-.007 -.117v-2a1 1 0 0 1 1 -1z"></path><path fill="#e9b253" d="M17.693 4.893a1 1 0 0 1 1.497 1.32l-.083 .094l-1.4 1.4a1 1 0 0 1 -1.497 -1.32l.083 -.094l1.4 -1.4z"></path><path fill="#e9b253" d="M21 11a1 1 0 0 1 .117 1.993l-.117 .007h-2a1 1 0 0 1 -.117 -1.993l.117 -.007h2z"></path><path fill="#e9b253" d="M16.293 16.293a1 1 0 0 1 1.32 -.083l.094 .083l1.4 1.4a1 1 0 0 1 -1.32 1.497l-.094 -.083l-1.4 -1.4a1 1 0 0 1 0 -1.414z"></path><path fill="#e9b253" d="M12 18a1 1 0 0 1 .993 .883l.007 .117v2a1 1 0 0 1 -1.993 .117l-.007 -.117v-2a1 1 0 0 1 1 -1z"></path><path fill="#e9b253" d="M6.293 16.293a1 1 0 0 1 1.497 1.32l-.083 .094l-1.4 1.4a1 1 0 0 1 -1.497 -1.32l.083 -.094l1.4 -1.4z"></path><path fill="#e9b253" d="M6 11a1 1 0 0 1 .117 1.993l-.117 .007h-2a1 1 0 0 1 -.117 -1.993l.117 -.007h2z"></path><path fill="#e9b253" d="M4.893 4.893a1 1 0 0 1 1.32 -.083l.094 .083l1.4 1.4a1 1 0 0 1 -1.32 1.497l-.094 -.083l-1.4 -1.4a1 1 0 0 1 0 -1.414z"></path></svg>